<?xml version="1.0" standalone="no"?>
<!DOCTYPE svg PUBLIC "-//W3C//DTD SVG 20010904//EN"
 "http://www.w3.org/TR/2001/REC-SVG-20010904/DTD/svg10.dtd">
<svg version="1.0" xmlns="http://www.w3.org/2000/svg"
 width="674.000000pt" height="674.000000pt" viewBox="0 0 674.000000 674.000000"
 preserveAspectRatio="xMidYMid meet">
<metadata>
Created by potrace 1.14, written by Peter Selinger 2001-2017
</metadata>
<g transform="translate(0.000000,674.000000) scale(0.100000,-0.100000)"
fill="#000000" stroke="none">
<path d="M1107 6729 c-59 -14 -138 -50 -182 -83 -49 -36 -113 -105 -121 -128
-3 -10 -10 -18 -15 -18 -5 0 -9 -4 -9 -10 0 -7 -59 -114 -110 -200 -13 -22
-140 -240 -160 -275 -9 -16 -28 -50 -42 -75 -14 -25 -67 -117 -118 -205 -51
-88 -100 -173 -109 -188 -9 -16 -21 -36 -26 -45 -51 -84 -110 -204 -125 -252
-41 -136 -17 -282 70 -432 24 -40 59 -102 78 -138 19 -36 44 -76 54 -89 10
-13 18 -27 18 -31 0 -7 37 -72 90 -160 55 -91 150 -262 150 -269 0 -5 4 -11 8
-13 5 -1 22 -28 39 -58 17 -30 63 -111 103 -180 40 -69 79 -136 86 -150 48
-88 168 -185 276 -222 62 -21 74 -21 793 -22 573 -1 741 2 780 12 80 21 154
62 214 118 49 45 75 83 171 244 10 16 186 324 217 380 11 19 32 55 47 80 15
25 29 53 33 63 3 9 9 17 14 17 5 0 9 4 9 9 0 5 23 47 50 94 28 47 50 90 50 95
0 6 4 12 8 14 4 2 37 55 72 118 35 63 67 117 70 120 14 12 54 120 65 176 15
81 8 175 -18 244 -17 44 -50 113 -58 120 -3 3 -12 20 -20 38 -8 17 -17 32 -21
32 -5 0 -8 4 -8 9 0 8 -222 398 -273 478 -15 24 -27 45 -27 47 0 2 -45 82
-100 176 -55 95 -100 174 -100 175 0 2 -29 51 -65 110 -71 117 -130 179 -215
224 -115 61 -105 61 -890 60 -393 -1 -732 -5 -753 -10z m168 -309 c3 5 18 5
35 0 17 -5 30 -5 30 0 0 5 13 5 30 0 17 -5 30 -5 30 0 0 5 13 5 30 0 17 -5 30
-5 30 0 0 5 13 5 30 0 19 -5 30 -5 30 1 0 6 5 7 10 4 9 -6 61 -7 130 -4 8 0
24 0 35 -1 27 -1 87 -1 103 -1 16 1 37 1 65 1 12 0 36 1 52 3 17 1 42 -1 58
-5 15 -3 27 -3 27 2 0 5 13 5 30 0 17 -5 30 -6 30 -2 0 4 16 7 35 7 19 0 35
-3 35 -7 0 -4 14 -3 30 2 17 5 30 5 30 0 0 -5 13 -5 30 0 17 5 30 5 30 0 0 -5
13 -5 30 0 17 5 32 5 35 0 3 -5 15 -6 29 0 12 4 29 4 36 0 8 -5 21 -5 31 0 9
5 19 7 22 4 3 -3 34 -7 69 -8 35 -2 75 -8 89 -14 25 -10 79 -71 107 -121 128
-226 157 -276 162 -281 3 -3 14 -23 26 -45 11 -22 44 -80 72 -128 29 -49 52
-93 52 -98 0 -5 5 -9 10 -9 6 0 10 -4 10 -10 0 -8 72 -138 100 -180 6 -8 13
-22 17 -30 4 -8 24 -43 45 -78 21 -34 38 -64 38 -67 0 -3 19 -35 41 -72 73
-118 84 -157 65 -218 -5 -16 -56 -110 -113 -209 -57 -98 -103 -182 -103 -187
0 -5 -4 -9 -10 -9 -5 0 -10 -4 -10 -9 0 -5 -23 -49 -51 -98 -29 -48 -62 -107
-76 -131 -13 -23 -53 -93 -89 -154 -35 -61 -64 -112 -64 -114 0 -3 -12 -23
-27 -47 -14 -23 -40 -67 -56 -97 -17 -30 -33 -57 -36 -60 -3 -3 -16 -23 -28
-45 -11 -22 -40 -53 -63 -70 l-42 -30 -703 0 -703 0 -42 30 c-24 17 -53 48
-65 70 -23 40 -170 296 -336 583 -49 84 -89 157 -89 163 0 5 -4 9 -10 9 -5 0
-10 5 -10 10 0 6 -21 47 -47 91 -27 44 -57 97 -69 117 -11 20 -31 55 -44 77
-44 76 -53 99 -58 145 -5 57 2 72 162 350 65 113 126 219 136 235 33 59 168
291 189 325 11 19 24 41 28 49 3 8 35 64 71 125 36 61 72 124 81 140 24 42 82
86 120 91 18 2 35 6 38 9 3 2 16 1 29 -4 13 -5 26 -6 29 0z"/>
<path d="M4072 4974 c-77 -25 -136 -61 -196 -118 -42 -39 -66 -74 -124 -176
-24 -41 -47 -82 -52 -90 -56 -91 -220 -382 -220 -390 0 -5 -4 -10 -10 -10 -5
0 -10 -4 -10 -9 0 -5 -45 -87 -100 -181 -55 -95 -100 -174 -100 -175 0 -2 -18
-33 -40 -69 -22 -36 -40 -70 -40 -75 0 -5 -4 -11 -8 -13 -21 -8 -67 -120 -89
-213 -5 -22 -5 -152 0 -175 12 -52 31 -106 49 -138 11 -20 33 -59 48 -87 15
-27 78 -136 139 -242 61 -105 111 -194 111 -197 0 -3 8 -15 18 -26 9 -11 17
-24 17 -28 0 -4 8 -18 16 -32 21 -33 161 -275 191 -329 28 -52 31 -56 96 -166
91 -155 169 -223 312 -272 39 -14 143 -16 770 -18 785 -2 784 -2 898 52 64 31
177 138 205 193 9 19 28 53 42 75 14 22 28 47 32 55 4 8 26 48 50 88 24 40 43
77 43 82 0 6 5 10 10 10 6 0 10 4 10 10 0 5 13 31 28 57 57 95 221 379 252
438 18 33 39 67 46 76 8 8 14 18 14 21 0 3 28 54 63 114 114 196 133 257 124
389 -6 96 -31 162 -106 289 -28 47 -51 91 -51 96 0 6 -4 10 -10 10 -5 0 -10 4
-10 10 0 5 -14 33 -31 62 -35 59 -61 104 -92 163 -12 22 -24 42 -27 45 -3 3
-41 68 -85 145 -44 77 -86 149 -92 160 -7 11 -19 34 -28 50 -9 17 -24 44 -35
60 -10 17 -25 41 -33 55 -149 268 -209 341 -323 395 -115 54 -103 54 -879 53
l-720 0 -73 -24z m1545 -326 c30 -19 56 -53 94 -120 30 -51 59 -101 64 -110 6
-9 17 -29 26 -45 8 -15 96 -167 194 -338 98 -170 183 -319 189 -330 6 -11 14
-22 18 -25 4 -3 12 -17 17 -30 6 -14 25 -47 41 -75 60 -101 87 -161 89 -201 3
-47 -7 -67 -199 -399 -73 -126 -143 -249 -156 -272 -13 -23 -53 -92 -89 -153
-36 -61 -65 -113 -65 -115 0 -3 -16 -29 -35 -59 -19 -30 -35 -57 -35 -59 0 -9
-107 -185 -121 -199 -8 -8 -27 -23 -44 -34 -28 -18 -55 -19 -725 -20 -553 0
-702 2 -728 13 -17 7 -32 18 -32 23 0 6 -6 10 -13 10 -7 0 -30 30 -52 68 -21
37 -66 114 -100 172 -34 58 -64 112 -68 120 -4 8 -18 33 -32 55 -14 22 -37 63
-52 90 -15 28 -32 58 -38 67 -43 71 -131 225 -133 236 -2 6 -8 12 -13 12 -5 0
-8 3 -7 8 1 4 -5 18 -14 32 -34 53 -88 151 -88 160 0 4 -3 10 -7 12 -9 4 -56
84 -85 147 -24 51 -28 131 -8 151 3 3 13 21 22 40 10 19 31 58 48 85 16 28 32
56 36 64 4 8 43 75 86 149 43 74 78 137 78 139 0 3 8 17 19 31 19 28 77 131
95 169 6 13 14 23 19 23 4 0 7 5 7 10 0 6 21 45 46 88 25 42 50 86 56 97 73
129 163 282 172 290 19 18 61 43 81 47 11 3 331 4 711 4 l690 -1 41 -27z"/>
<path d="M1112 3245 c-65 -15 -124 -40 -179 -77 -80 -54 -101 -81 -260 -352
-7 -12 -16 -28 -20 -36 -4 -8 -36 -64 -71 -125 -36 -60 -76 -130 -90 -155 -14
-25 -65 -115 -115 -200 -49 -85 -103 -180 -120 -210 -17 -30 -47 -82 -67 -115
-45 -74 -96 -180 -106 -220 -16 -68 -13 -209 6 -268 17 -51 76 -174 90 -187 3
-3 13 -21 23 -40 35 -65 52 -95 58 -100 4 -3 9 -15 13 -27 4 -13 12 -23 17
-23 5 0 9 -5 9 -10 0 -6 43 -86 96 -178 53 -92 119 -205 146 -252 26 -47 53
-92 58 -100 5 -8 21 -35 35 -60 170 -302 198 -343 280 -406 47 -37 85 -57 152
-81 44 -17 106 -18 798 -18 l750 0 65 24 c96 35 174 92 232 171 22 31 92 148
205 345 19 33 37 68 40 77 3 10 9 18 14 18 5 0 9 5 9 10 0 6 11 27 23 48 13
20 35 57 49 82 14 25 60 106 103 180 43 74 86 149 95 165 173 300 195 345 206
421 17 109 3 200 -48 304 -22 47 -45 87 -49 88 -5 2 -9 8 -9 14 0 6 -20 44
-45 85 -25 40 -45 76 -45 78 0 3 -16 29 -35 59 -19 30 -35 58 -35 61 0 3 -11
22 -23 43 -13 20 -35 57 -49 82 -14 25 -38 68 -53 95 -16 28 -39 67 -52 87
-12 21 -23 42 -23 48 0 5 -4 10 -10 10 -5 0 -10 4 -10 9 0 5 -23 49 -51 98
-29 48 -63 108 -77 133 -109 195 -151 255 -227 318 -22 19 -155 80 -190 88
-57 13 -1456 11 -1513 -1z m1478 -325 c55 -34 74 -60 203 -290 10 -19 41 -72
68 -118 27 -45 49 -87 49 -92 0 -6 4 -10 9 -10 5 0 11 -8 14 -17 4 -10 18 -38
32 -63 49 -84 143 -245 164 -282 41 -74 64 -113 82 -143 11 -16 24 -41 31 -55
7 -14 15 -27 18 -30 3 -3 11 -16 18 -30 7 -14 24 -44 38 -68 39 -66 36 -121
-11 -207 -21 -38 -46 -82 -57 -97 -10 -14 -18 -28 -18 -31 0 -3 -34 -63 -75
-132 -41 -70 -75 -128 -75 -129 0 -2 -38 -69 -85 -150 -47 -81 -85 -152 -85
-157 0 -5 -4 -9 -8 -9 -4 0 -21 -26 -37 -58 -16 -31 -31 -59 -35 -62 -3 -3
-19 -31 -35 -62 -17 -32 -33 -58 -37 -58 -5 0 -8 -4 -8 -9 0 -10 -57 -112 -94
-168 -11 -18 -27 -33 -33 -33 -7 0 -13 -4 -13 -10 0 -26 -97 -30 -748 -30
-585 0 -677 2 -710 15 -51 22 -77 49 -119 124 -20 37 -43 74 -51 84 -8 9 -11
17 -7 17 4 0 2 8 -6 18 -8 9 -20 28 -28 42 -8 14 -55 95 -104 180 -49 85 -103
180 -120 210 -16 30 -36 62 -43 71 -8 8 -14 18 -14 21 0 4 -56 104 -125 224
-69 119 -131 236 -137 260 -15 53 -1 116 37 172 14 20 25 42 25 48 0 7 3 14 8
16 4 2 14 17 24 33 30 55 261 458 278 485 29 46 100 171 100 176 0 3 8 18 19
32 10 15 29 47 43 72 72 130 93 165 100 168 4 2 8 9 8 16 0 7 14 32 31 55 58
80 18 77 800 76 590 -1 698 -3 719 -15z"/>
</g>
</svg>
